<svg width="21" height="21" viewBox="0 0 21 21" fill="none" xmlns="http://www.w3.org/2000/svg">
<path d="M0 13.5C0 12.6716 0.671573 12 1.5 12C2.32843 12 3 12.6716 3 13.5C3 14.3284 2.32843 15 1.5 15C0.671573 15 0 14.3284 0 13.5Z" fill="#F25656"/>
<path d="M5.99998 13.5001C5.99998 12.6716 6.67155 12.0001 7.49998 12.0001C8.3284 12.0001 8.99998 12.6716 8.99998 13.5001C8.99998 14.3285 8.3284 15.0001 7.49998 15.0001C6.67155 15.0001 5.99998 14.3285 5.99998 13.5001Z" fill="#F25656"/>
<path d="M12 13.5001C12 12.6716 12.6716 12.0001 13.5 12.0001C14.3285 12.0001 15 12.6716 15 13.5001C15 14.3285 14.3285 15.0001 13.5 15.0001C12.6716 15.0001 12 14.3285 12 13.5001Z" fill="#F25656"/>
<path d="M18 13.5001C18 12.6716 18.6716 12.0001 19.5 12.0001C20.3284 12.0001 21 12.6716 21 13.5001C21 14.3285 20.3284 15.0001 19.5 15.0001C18.6716 15.0001 18 14.3285 18 13.5001Z" fill="#F25656"/>
<path d="M0 19.5C0 18.6716 0.671573 18 1.5 18C2.32843 18 3 18.6716 3 19.5C3 20.3285 2.32843 21 1.5 21C0.671573 21 0 20.3285 0 19.5Z" fill="#F25656"/>
<path d="M5.99998 19.5C5.99998 18.6716 6.67155 18 7.49998 18C8.3284 18 8.99998 18.6716 8.99998 19.5C8.99998 20.3285 8.3284 21 7.49998 21C6.67155 21 5.99998 20.3285 5.99998 19.5Z" fill="#F25656"/>
<path d="M12 19.5C12 18.6716 12.6716 18 13.5 18C14.3285 18 15 18.6716 15 19.5C15 20.3285 14.3285 21 13.5 21C12.6716 21 12 20.3285 12 19.5Z" fill="#F25656"/>
<path d="M18 19.5C18 18.6716 18.6716 18 19.5 18C20.3284 18 21 18.6716 21 19.5C21 20.3285 20.3284 21 19.5 21C18.6716 21 18 20.3285 18 19.5Z" fill="#F25656"/>
<path d="M0 1.5C0 0.671573 0.671573 0 1.5 0C2.32843 0 3 0.671573 3 1.5C3 2.32843 2.32843 3 1.5 3C0.671573 3 0 2.32843 0 1.5Z" fill="#F25656"/>
<path d="M5.99998 1.50005C5.99998 0.671626 6.67155 5.30481e-05 7.49998 5.30481e-05C8.3284 5.30481e-05 8.99998 0.671626 8.99998 1.50005C8.99998 2.32848 8.3284 3.00005 7.49998 3.00005C6.67155 3.00005 5.99998 2.32848 5.99998 1.50005Z" fill="#F25656"/>
<path d="M12 1.50005C12 0.671626 12.6716 5.30481e-05 13.5 5.30481e-05C14.3285 5.30481e-05 15 0.671626 15 1.50005C15 2.32848 14.3285 3.00005 13.5 3.00005C12.6716 3.00005 12 2.32848 12 1.50005Z" fill="#F25656"/>
<path d="M18 1.50005C18 0.671626 18.6716 5.30481e-05 19.5 5.30481e-05C20.3284 5.30481e-05 21 0.671626 21 1.50005C21 2.32848 20.3284 3.00005 19.5 3.00005C18.6716 3.00005 18 2.32848 18 1.50005Z" fill="#F25656"/>
<path d="M0 7.50005C0 6.67162 0.671573 6.00005 1.5 6.00005C2.32843 6.00005 3 6.67162 3 7.50005C3 8.32848 2.32843 9.00005 1.5 9.00005C0.671573 9.00005 0 8.32848 0 7.50005Z" fill="#F25656"/>
<path d="M5.99998 7.50005C5.99998 6.67162 6.67155 6.00005 7.49998 6.00005C8.3284 6.00005 8.99998 6.67162 8.99998 7.50005C8.99998 8.32848 8.3284 9.00005 7.49998 9.00005C6.67155 9.00005 5.99998 8.32848 5.99998 7.50005Z" fill="#F25656"/>
<path d="M12 7.50005C12 6.67162 12.6716 6.00005 13.5 6.00005C14.3285 6.00005 15 6.67162 15 7.50005C15 8.32848 14.3285 9.00005 13.5 9.00005C12.6716 9.00005 12 8.32848 12 7.50005Z" fill="#F25656"/>
<path d="M18 7.50005C18 6.67162 18.6716 6.00005 19.5 6.00005C20.3284 6.00005 21 6.67162 21 7.50005C21 8.32848 20.3284 9.00005 19.5 9.00005C18.6716 9.00005 18 8.32848 18 7.50005Z" fill="#F25656"/>
</svg>
