<svg width="241" height="71" viewBox="0 0 241 71" fill="none" xmlns="http://www.w3.org/2000/svg">
<path d="M0.820312 59.9584H7.16991V54.0343L9.49371 51.4487L15.2541 59.9584H22.8802L13.9122 46.8992L22.5856 37.0476H15.0578L7.16991 46.3428V37.0476H0.820312V59.9584ZM29.4261 60.3512C31.7499 60.3512 33.4191 59.4675 34.6301 58.1255V59.9584H40.7833V49.7795C40.7833 47.292 40.2269 45.4591 38.885 44.15C37.4776 42.7426 35.3175 41.9898 32.1427 41.9898C29.0988 41.9898 26.9714 42.5462 24.9749 43.3644L26.2513 47.7502C27.8224 47.1284 29.2625 46.7683 31.1281 46.7683C33.5173 46.7683 34.6629 47.8157 34.6629 49.6485V49.9431C33.6482 49.5831 32.0445 49.2558 30.408 49.2558C26.2513 49.2558 23.4693 51.1541 23.4693 54.8198C23.4693 58.4201 26.055 60.3512 29.4261 60.3512ZM31.6517 56.4563C30.3753 56.4563 29.4588 55.7363 29.4588 54.5253C29.4588 53.1506 30.5062 52.2669 32.3063 52.2669C33.2228 52.2669 34.1065 52.4633 34.7283 52.7251V53.5434C34.7283 55.3108 33.4519 56.4563 31.6517 56.4563ZM43.9581 59.9584H50.1768V47.2593H55.0208V59.9584H61.2394V42.2516H43.9581V59.9584ZM64.5778 59.9584H70.3055L76.1969 51.0887V59.9584H82.2191V42.2516H76.4914L70.6001 51.1214V42.2516H64.5778V59.9584ZM89.3869 59.9584H95.6055V47.2593H100.777V42.2516H84.2156V47.2593H89.3869V59.9584ZM107.846 60.3512C110.17 60.3512 111.839 59.4675 113.05 58.1255V59.9584H119.204V49.7795C119.204 47.292 118.647 45.4591 117.305 44.15C115.898 42.7426 113.738 41.9898 110.563 41.9898C107.519 41.9898 105.392 42.5462 103.395 43.3644L104.672 47.7502C106.243 47.1284 107.683 46.7683 109.548 46.7683C111.938 46.7683 113.083 47.8157 113.083 49.6485V49.9431C112.069 49.5831 110.465 49.2558 108.828 49.2558C104.672 49.2558 101.89 51.1541 101.89 54.8198C101.89 58.4201 104.475 60.3512 107.846 60.3512ZM110.072 56.4563C108.796 56.4563 107.879 55.7363 107.879 54.5253C107.879 53.1506 108.927 52.2669 110.727 52.2669C111.643 52.2669 112.527 52.4633 113.149 52.7251V53.5434C113.149 55.3108 111.872 56.4563 110.072 56.4563ZM123.786 60.1875C127.55 60.1875 130.43 58.3546 130.43 47.652V47.1938H133.703V59.9584H139.922V42.2516H124.637V45.6555C124.637 54.7544 123.426 55.2126 122.313 55.2126C122.149 55.2126 121.986 55.2126 121.298 55.1144L121.037 59.9257C121.789 60.0566 123.131 60.1875 123.786 60.1875ZM151.802 60.3839C155.697 60.3839 158.054 58.7474 159.69 56.3254L155.468 53.2815C154.486 54.4271 153.603 55.1471 152.13 55.1471C150.035 55.1471 148.595 53.4125 148.595 51.1214C148.595 48.8958 149.97 47.1284 152.228 47.1284C153.57 47.1284 154.584 47.6848 155.435 48.863L159.592 45.8519C158.087 43.4626 155.665 41.8916 152.032 41.8916C146.435 41.8916 142.54 46.1137 142.54 51.1214C142.54 56.1945 146.467 60.3839 151.802 60.3839ZM165.712 59.9584H171.931V47.2593H177.102V42.2516H160.541V47.2593H165.712V59.9584ZM179.099 65.1952H185.318V57.7982C186.463 59.1402 188.034 60.3512 190.718 60.3512C194.907 60.3512 198.54 56.8491 198.54 51.0887C198.54 45.361 194.907 41.8589 190.685 41.8589C188.034 41.8589 186.529 43.1353 185.318 44.6082V42.2516H179.099V65.1952ZM188.787 55.1471C186.79 55.1471 185.187 53.4779 185.187 51.1214C185.187 48.7321 186.79 47.0629 188.787 47.0629C190.816 47.0629 192.42 48.7321 192.42 51.0559C192.42 53.5106 190.816 55.1471 188.787 55.1471ZM210.258 60.3839C215.953 60.3839 220.077 56.1618 220.077 51.1214C220.077 46.0155 215.985 41.8589 210.323 41.8589C204.628 41.8589 200.504 46.081 200.504 51.1214C200.504 56.2272 204.595 60.3839 210.258 60.3839ZM210.323 55.1144C208.13 55.1144 206.559 53.2815 206.559 51.1214C206.559 48.9285 207.999 47.1284 210.258 47.1284C212.451 47.1284 214.022 48.9612 214.022 51.1214C214.022 53.3143 212.581 55.1144 210.323 55.1144ZM222.695 59.9584H228.423L234.314 51.0887V59.9584H240.336V42.2516H234.609L228.717 51.1214V42.2516H222.695V59.9584ZM231.663 40.8115C234.609 40.8115 236.605 39.0441 237.063 35.9348L233.823 35.3457C233.43 36.4912 232.808 37.244 231.663 37.244C230.517 37.244 229.895 36.4912 229.503 35.3457L226.262 35.9348C226.721 39.0441 228.717 40.8115 231.663 40.8115Z" fill="#F2F2F2"/>
<path fill-rule="evenodd" clip-rule="evenodd" d="M130.212 0.856445L63.2773 34.4022H70.0178L130.682 8.85114L181.628 34.7159H207.963L130.212 0.856445Z" fill="#F25656"/>
<path d="M240.203 66.9521H0.367188V70.7142H240.203V66.9521Z" fill="#F25656"/>
<path fill-rule="evenodd" clip-rule="evenodd" d="M111.286 0.856445L33.6914 34.4022H40.4319L111.756 8.85114L142.637 34.7159H178.377L111.286 0.856445Z" fill="#F2F2F2"/>
</svg>
